<svg xmlns="http://www.w3.org/2000/svg" xmlns:xlink="http://www.w3.org/1999/xlink" viewBox="0,0,256,256" width="400px" height="400px"><g fill="#ffffff" fill-rule="nonzero" stroke="none" stroke-width="1" stroke-linecap="butt" stroke-linejoin="miter" stroke-miterlimit="10" stroke-dasharray="" stroke-dashoffset="0" font-family="none" font-weight="none" font-size="none" text-anchor="none" style="mix-blend-mode: normal"><g transform="scale(2.56,2.56)"><path d="M27,13c-3.84546,0 -7,3.15454 -7,7v19h-2c-1.64545,0 -3,1.35455 -3,3v7c0,1.64545 1.35455,3 3,3h2v25c0,1.64545 1.35455,3 3,3h1v4c0,1.64545 1.35455,3 3,3h6c1.64545,0 3,-1.35455 3,-3v-4h28v4c0,1.64545 1.35455,3 3,3h6c1.64545,0 3,-1.35455 3,-3v-4h1c1.64545,0 3,-1.35455 3,-3v-25h2c1.64545,0 3,-1.35455 3,-3v-7c0,-1.64545 -1.35455,-3 -3,-3h-2v-19c0,-3.84546 -3.15454,-7 -7,-7zM27,15h46c2.75454,0 5,2.24545 5,5v20v11v20h-56v-20v-11v-20c0,-2.75454 2.24545,-5 5,-5zM30.5,19c-3.0619,0 -5.5,2.4381 -5.5,5.5v6.91992c-0.00882,0.05368 -0.00882,0.10843 0,0.16211v20.91797c0,1.9549 1.5451,3.5 3.5,3.5h26.33203c0.10799,0.01785 0.21818,0.01785 0.32617,0h15.67383c0.10799,0.01785 0.21818,0.01785 0.32617,0h0.3418c1.9549,0 3.5,-1.5451 3.5,-3.5v-28c0,-3.0619 -2.4381,-5.5 -5.5,-5.5zM30.5,20h39c2.53809,0 4.5,1.96191 4.5,4.5v28c0,1.27257 -0.81977,2.23966 -2.00195,2.45313c-0.02581,-4.92394 -4.0684,-8.95312 -8.99805,-8.95312c-4.94546,0 -9,4.05454 -9,9h-25.5c-1.4451,0 -2.5,-1.0549 -2.5,-2.5v-20.5h36.5c0.18032,0.00255 0.34804,-0.09219 0.43894,-0.24794c0.0909,-0.15575 0.0909,-0.34838 0,-0.50413c-0.0909,-0.15575 -0.25863,-0.25049 -0.43894,-0.24794h-36.5v-6.5c0,-2.53809 1.96191,-4.5 4.5,-4.5zM30.5,23c-0.27613,0.00003 -0.49997,0.22387 -0.5,0.5v4c0.00003,0.27613 0.22387,0.49997 0.5,0.5h7c0.27613,-0.00003 0.49997,-0.22387 0.5,-0.5v-4c-0.00003,-0.27613 -0.22387,-0.49997 -0.5,-0.5zM41.5,23c-0.27613,0.00003 -0.49997,0.22387 -0.5,0.5v4c0.00003,0.27613 0.22387,0.49997 0.5,0.5h28c0.27613,-0.00003 0.49997,-0.22387 0.5,-0.5v-4c-0.00003,-0.27613 -0.22387,-0.49997 -0.5,-0.5zM31,24h6v3h-6zM42,24h27v3h-27zM64.5,31c-0.18032,-0.00255 -0.34804,0.09219 -0.43894,0.24794c-0.0909,0.15575 -0.0909,0.34838 0,0.50413c0.0909,0.15575 0.25863,0.25049 0.43894,0.24794h3c0.18032,0.00255 0.34804,-0.09219 0.43894,-0.24794c0.0909,-0.15575 0.0909,-0.34838 0,-0.50413c-0.0909,-0.15575 -0.25863,-0.25049 -0.43894,-0.24794zM69.5,31c-0.18032,-0.00255 -0.34804,0.09219 -0.43894,0.24794c-0.0909,0.15575 -0.0909,0.34838 0,0.50413c0.0909,0.15575 0.25863,0.25049 0.43894,0.24794h1c0.18032,0.00255 0.34804,-0.09219 0.43894,-0.24794c0.0909,-0.15575 0.0909,-0.34838 0,-0.50413c-0.0909,-0.15575 -0.25863,-0.25049 -0.43894,-0.24794zM18,41h2v9h-2c-0.55455,0 -1,-0.44546 -1,-1v-7c0,-0.55454 0.44545,-1 1,-1zM80,41h2c0.55455,0 1,0.44546 1,1v7c0,0.55454 -0.44545,1 -1,1h-2zM63,48c3.85455,0 7,3.14545 7,7h-14c0,-3.85455 3.14545,-7 7,-7zM29.5,59c-1.45833,0 -2.61474,0.56488 -3.37305,1.41797c-0.7583,0.85309 -1.12695,1.97092 -1.12695,3.08203c0,1.11111 0.36865,2.22894 1.12695,3.08203c0.7583,0.85309 1.91471,1.41797 3.37305,1.41797c1.45833,0 2.61474,-0.56488 3.37305,-1.41797c0.7583,-0.85309 1.12695,-1.97092 1.12695,-3.08203c0,-1.11111 -0.36865,-2.22894 -1.12695,-3.08203c-0.7583,-0.85309 -1.91471,-1.41797 -3.37305,-1.41797zM70.5,59c-1.45833,0 -2.61474,0.56488 -3.37305,1.41797c-0.7583,0.85309 -1.12695,1.97092 -1.12695,3.08203c0,1.11111 0.36865,2.22894 1.12695,3.08203c0.7583,0.85309 1.91471,1.41797 3.37305,1.41797c1.45833,0 2.61474,-0.56488 3.37305,-1.41797c0.7583,-0.85309 1.12695,-1.97092 1.12695,-3.08203c0,-1.11111 -0.36865,-2.22894 -1.12695,-3.08203c-0.7583,-0.85309 -1.91471,-1.41797 -3.37305,-1.41797zM29.5,60c1.20833,0 2.05192,0.43512 2.62695,1.08203c0.57503,0.64691 0.87305,1.52908 0.87305,2.41797c0,0.88889 -0.29802,1.77106 -0.87305,2.41797c-0.57503,0.64691 -1.41862,1.08203 -2.62695,1.08203c-1.20833,0 -2.05192,-0.43512 -2.62695,-1.08203c-0.57503,-0.64691 -0.87305,-1.52908 -0.87305,-2.41797c0,-0.88889 0.29802,-1.77106 0.87305,-2.41797c0.57503,-0.64691 1.41862,-1.08203 2.62695,-1.08203zM70.5,60c1.20833,0 2.05192,0.43512 2.62695,1.08203c0.57503,0.64691 0.87305,1.52908 0.87305,2.41797c0,0.88889 -0.29802,1.77106 -0.87305,2.41797c-0.57503,0.64691 -1.41862,1.08203 -2.62695,1.08203c-1.20833,0 -2.05192,-0.43512 -2.62695,-1.08203c-0.57503,-0.64691 -0.87305,-1.52908 -0.87305,-2.41797c0,-0.88889 0.29802,-1.77106 0.87305,-2.41797c0.57503,-0.64691 1.41862,-1.08203 2.62695,-1.08203zM22,73h56v4c0,0.55455 -0.44545,1 -1,1h-2h-10h-30h-10h-2c-0.55455,0 -1,-0.44545 -1,-1zM26,80h3.5v1c-0.00255,0.18032 0.09219,0.34804 0.24794,0.43894c0.15575,0.0909 0.34838,0.0909 0.50413,0c0.15575,-0.0909 0.25049,-0.25863 0.24794,-0.43894v-1h3.5v4c0,0.55455 -0.44546,1 -1,1h-2.5v-1c0.00212,-0.13532 -0.0507,-0.26572 -0.1464,-0.36141c-0.0957,-0.0957 -0.22609,-0.14852 -0.36141,-0.1464c-0.13261,0.00207 -0.25896,0.05673 -0.35127,0.15197c-0.0923,0.09523 -0.14299,0.22324 -0.14092,0.35584v1h-2.5c-0.55455,0 -1,-0.44545 -1,-1zM66,80h3.5v1c-0.00255,0.18032 0.09219,0.34804 0.24794,0.43894c0.15575,0.0909 0.34838,0.0909 0.50413,0c0.15575,-0.0909 0.25049,-0.25863 0.24794,-0.43894v-1h3.5v4c0,0.55455 -0.44545,1 -1,1h-2.5v-1c0.00212,-0.13532 -0.0507,-0.26572 -0.1464,-0.36141c-0.0957,-0.0957 -0.22609,-0.14852 -0.36141,-0.1464c-0.13261,0.00207 -0.25896,0.05673 -0.35127,0.15197c-0.0923,0.09523 -0.14299,0.22324 -0.14092,0.35584v1h-2.5c-0.55455,0 -1,-0.44545 -1,-1z"></path></g></g></svg>